<svg width="60" height="60" viewBox="0 0 60 60" fill="none" xmlns="http://www.w3.org/2000/svg">
<g clip-path="url(#clip0_232_2136)">
<path d="M17.6622 25.0793L13.4633 28.8909L12.0946 27.5222C11.7289 27.1564 11.1356 27.1564 10.7698 27.5222C10.404 27.8881 10.404 28.4812 10.7698 28.847L12.7695 30.8467C12.952 31.0292 13.1919 31.1211 13.432 31.1211C13.6571 31.1211 13.8826 31.0404 14.0615 30.8779L15.5976 29.4835V31.9648H7.26324V24.4009H16.5345C17.0519 24.4009 17.4713 23.9815 17.4713 23.4641C17.4713 22.9468 17.0519 22.5273 16.5345 22.5273H6.32645C5.80906 22.5273 5.38965 22.9468 5.38965 23.4641V32.9015C5.38965 33.4189 5.80906 33.8383 6.32645 33.8383H16.5345C17.0519 33.8383 17.4713 33.4189 17.4713 32.9015V27.7827L18.9214 26.4665C19.3045 26.1188 19.3331 25.5263 18.9854 25.1432C18.6376 24.7602 18.0452 24.7316 17.6622 25.0793Z" fill="#DA251E"/>
<path d="M25.341 44.3867H22.2483C21.7309 44.3867 21.3115 44.8061 21.3115 45.3235C21.3115 45.8409 21.7309 46.2603 22.2483 46.2603H25.341C25.8584 46.2603 26.2778 45.8409 26.2778 45.3235C26.2778 44.8061 25.8584 44.3867 25.341 44.3867Z" fill="#DA251E"/>
<path d="M17.6622 7.9425L13.4633 11.754L12.0946 10.3854C11.7289 10.0195 11.1356 10.0196 10.7698 10.3854C10.404 10.7512 10.404 11.3443 10.7698 11.7102L12.7696 13.7099C12.9521 13.8923 13.192 13.9842 13.4321 13.9842C13.6572 13.9842 13.8827 13.9036 14.0616 13.7411L15.5977 12.3466V14.8279H7.26324V7.26422H16.5345C17.0519 7.26422 17.4713 6.8448 17.4713 6.32742C17.4713 5.81004 17.0519 5.39062 16.5345 5.39062H6.32645C5.80906 5.39062 5.38965 5.81004 5.38965 6.32742V15.7648C5.38965 16.2821 5.80906 16.7016 6.32645 16.7016H16.5345C17.0519 16.7016 17.4713 16.2821 17.4713 15.7648V10.646L18.9214 9.32977C19.3045 8.98207 19.3331 8.38957 18.9854 8.00648C18.6376 7.6234 18.0452 7.59481 17.6622 7.9425Z" fill="#DA251E"/>
<path d="M36.3694 47.8555C35.852 47.8555 35.4326 48.2749 35.4326 48.7923V59.0634C35.4326 59.5808 35.852 60.0002 36.3694 60.0002C36.8868 60.0002 37.3062 59.5808 37.3062 59.0634V48.7923C37.3063 48.2749 36.8869 47.8555 36.3694 47.8555Z" fill="#DA251E"/>
<path d="M17.6622 42.22L13.4633 46.0315L12.0946 44.6628C11.7289 44.297 11.1356 44.297 10.7698 44.6628C10.404 45.0287 10.404 45.6218 10.7698 45.9877L12.7695 47.9873C12.952 48.1698 13.1919 48.2617 13.432 48.2617C13.6571 48.2617 13.8826 48.1811 14.0615 48.0185L15.5976 46.6241V49.1054H7.26324V41.5416H16.5345C17.0519 41.5416 17.4713 41.1221 17.4713 40.6048C17.4713 40.0874 17.0519 39.668 16.5345 39.668H6.32645C5.80906 39.668 5.38965 40.0874 5.38965 40.6048V50.0421C5.38965 50.5595 5.80906 50.9789 6.32645 50.9789H16.5345C17.0519 50.9789 17.4713 50.5595 17.4713 50.0421V44.9234L18.9214 43.6071C19.3045 43.2594 19.3331 42.6669 18.9854 42.2838C18.6376 41.9007 18.0452 41.8721 17.6622 42.22Z" fill="#DA251E"/>
<path d="M52.3909 47.8555C51.8735 47.8555 51.4541 48.2749 51.4541 48.7923V59.0634C51.4541 59.5808 51.8735 60.0002 52.3909 60.0002C52.9083 60.0002 53.3277 59.5808 53.3277 59.0634V48.7923C53.3277 48.2749 52.9083 47.8555 52.3909 47.8555Z" fill="#DA251E"/>
<path d="M33.6655 27.25H22.2483C21.7309 27.25 21.3115 27.6694 21.3115 28.1868C21.3115 28.7042 21.7309 29.1236 22.2483 29.1236H33.6655C34.1829 29.1236 34.6023 28.7042 34.6023 28.1868C34.6023 27.6694 34.1829 27.25 33.6655 27.25Z" fill="#DA251E"/>
<path d="M53.068 38.8733C50.8227 38.3167 48.5804 37.9738 46.3503 37.8434C49.5564 36.7355 51.9225 32.992 51.9225 28.5547C51.9225 23.7376 49.0331 20.745 44.3819 20.745C42.6578 20.745 41.1766 21.1567 39.9938 21.9189V0.936797C39.9938 0.419414 39.5744 0 39.057 0H0.93875C0.421367 0 0.00195312 0.419414 0.00195312 0.936797V55.4317C0.00195312 55.9491 0.421367 56.3685 0.93875 56.3685H28.7623V59.0625C28.7623 59.5799 29.1818 59.9993 29.6991 59.9993C30.2165 59.9993 30.6359 59.5799 30.6359 59.0625V45.7253C30.6359 42.7368 33.6368 41.3374 36.1542 40.6897C41.5142 39.3117 47.053 39.3123 52.6169 40.6917C54.6737 41.2017 58.124 42.5339 58.124 45.7253V59.0625C58.124 59.5799 58.5434 59.9993 59.0608 59.9993C59.5782 59.9993 59.9976 59.5799 59.9976 59.0625V45.7253C59.9977 42.4629 57.472 39.9654 53.068 38.8733ZM35.6875 38.8753C31.2219 40.0242 28.7623 42.4569 28.7623 45.7254V54.495H1.87555V1.87359H38.1201V23.7784C37.2895 25.0391 36.8379 26.6542 36.8379 28.5546C36.8379 30.499 37.2876 32.3583 38.1201 33.9345V38.3423C37.3059 38.4906 36.4948 38.6678 35.6875 38.8753ZM39.9937 38.0549V36.3943C40.717 37.0543 41.5215 37.541 42.3768 37.8373C41.5801 37.8819 40.7857 37.9553 39.9937 38.0549ZM38.7114 28.5546C38.7114 24.7821 40.7783 22.6185 44.3819 22.6185C47.9833 22.6185 50.0488 24.7821 50.0488 28.5546C50.0488 32.8279 47.5067 36.3045 44.3819 36.3045C41.2551 36.3046 38.7114 32.828 38.7114 28.5546Z" fill="#DA251E"/>
<path d="M33.6655 5.39062H22.2483C21.7309 5.39062 21.3115 5.81004 21.3115 6.32742C21.3115 6.8448 21.7309 7.26422 22.2483 7.26422H33.6655C34.1829 7.26422 34.6023 6.8448 34.6023 6.32742C34.6023 5.81004 34.1829 5.39062 33.6655 5.39062Z" fill="#DA251E"/>
<path d="M33.6655 22.5273H22.2483C21.7309 22.5273 21.3115 22.9468 21.3115 23.4641C21.3115 23.9815 21.7309 24.4009 22.2483 24.4009H33.6655C34.1829 24.4009 34.6023 23.9815 34.6023 23.4641C34.6023 22.9468 34.1829 22.5273 33.6655 22.5273Z" fill="#DA251E"/>
<path d="M33.6655 10.1113H22.2483C21.7309 10.1113 21.3115 10.5307 21.3115 11.0481C21.3115 11.5655 21.7309 11.9849 22.2483 11.9849H33.6655C34.1829 11.9849 34.6023 11.5655 34.6023 11.0481C34.6023 10.5307 34.1829 10.1113 33.6655 10.1113Z" fill="#DA251E"/>
<path d="M26.7461 39.668H22.2483C21.7309 39.668 21.3115 40.0874 21.3115 40.6048C21.3115 41.1221 21.7309 41.5416 22.2483 41.5416H26.7461C27.2635 41.5416 27.6829 41.1221 27.6829 40.6048C27.6829 40.0874 27.2635 39.668 26.7461 39.668Z" fill="#DA251E"/>
</g>
<defs>
<clipPath id="clip0_232_2136">
<rect width="60" height="60" fill="white"/>
</clipPath>
</defs>
</svg>
