<svg width="60" height="60" viewBox="0 0 60 60" fill="none" xmlns="http://www.w3.org/2000/svg">
<g clip-path="url(#clip0_232_2126)">
<path d="M30.8203 0.703125L38.6719 7.26563H48.8672C49.4531 7.26563 49.9219 7.73438 50.0391 8.32031L51.7969 18.2813L59.5313 24.9609C60 25.3125 60.1172 26.0156 59.7656 26.4844L54.8438 35.2734L56.4844 45.3516C56.6016 45.9375 56.25 46.4063 55.7813 46.6406L46.1719 50.1563L41.0156 58.9453C40.7813 59.5313 40.0781 59.6484 39.6094 59.5313L30 56.0156L20.3906 59.5313C19.8047 59.6484 19.2188 59.4141 18.9844 58.9453L13.8281 50.1563L4.21875 46.6406C3.63281 46.4063 3.39844 45.8203 3.51563 45.2344L5.15625 35.2734L0.117188 26.3672C-0.117188 25.8984 0 25.1953 0.46875 24.8438L8.20313 18.2813L10.0781 8.20313C10.1953 7.61719 10.6641 7.26563 11.25 7.26563H21.3281L29.2969 0.703125C29.7656 0.351562 30.3516 0.351562 30.8203 0.703125ZM37.3828 9.25781L30 3.16406L22.6172 9.25781C22.3828 9.49219 22.1484 9.60938 21.7969 9.60938H12.1875L10.4297 18.9844C10.4297 19.3359 10.3125 19.5703 10.0781 19.8047L2.69531 26.0156L7.38281 34.3359C7.61719 34.5703 7.61719 34.9219 7.61719 35.2734L5.97656 44.7656L15 48.1641C15.2344 48.1641 15.4688 48.3984 15.5859 48.6328L20.5078 56.9531L29.5313 53.6719C29.8828 53.6719 30.1172 53.5547 30.3516 53.6719L39.4922 56.9531L44.2969 48.75C44.4141 48.3984 44.6484 48.2813 45 48.1641L54.0234 44.7656L52.3828 35.2734C52.3828 35.0391 52.3828 34.6875 52.5 34.4531L57.3047 26.0156L50.0391 19.8047C49.8047 19.6875 49.5703 19.4531 49.5703 19.1016L47.8125 9.60938H38.3203C37.9688 9.60938 37.7344 9.49219 37.3828 9.25781Z" fill="#DA251E"/>
<path d="M30.8204 10.6647L35.7423 14.7662H42.3048C42.8907 14.7662 43.3594 15.235 43.4766 15.8209L44.6485 22.149L49.5704 26.3678C50.0391 26.7193 50.1563 27.4225 49.8047 27.8912L46.6407 33.5162L47.6954 39.9615C47.8126 40.5475 47.461 41.0162 46.8751 41.2506L40.7813 43.4771L37.5001 49.1021C37.2657 49.5709 36.6798 49.8053 36.0938 49.5709L30.0001 47.4615L23.9063 49.6881C23.3204 49.8053 22.6173 49.5709 22.3829 48.985L19.2188 43.4771L13.0079 41.2506C12.5391 41.0162 12.1876 40.4303 12.3048 39.8443L13.3594 33.5162L10.1954 27.8912C9.84382 27.3053 9.96101 26.7193 10.4298 26.3678L15.3516 22.149L16.5235 15.7037C16.6407 15.1178 17.2266 14.7662 17.8126 14.7662H24.2579L29.2969 10.5475C29.7657 10.1959 30.3516 10.1959 30.8204 10.6647ZM34.5704 16.7584L30.0001 13.0084L25.4298 16.7584C25.1954 16.9928 24.961 17.11 24.6094 17.11H18.7501L17.6954 22.8522C17.5782 23.2037 17.461 23.4381 17.2266 23.6725L12.6563 27.5397L15.586 32.5787C15.7032 32.9303 15.8204 33.1647 15.8204 33.5162L14.7657 39.3756L20.3907 41.485C20.6251 41.485 20.8594 41.7193 20.9766 41.9537L24.0235 47.11L29.5313 45.1178C29.8829 45.0006 30.1173 45.0006 30.3516 45.1178L35.9766 47.11L39.0235 42.0709C39.1407 41.7193 39.3751 41.6022 39.6094 41.485L45.2344 39.3756L44.2969 33.5162C44.1797 33.2818 44.1797 32.9303 44.4141 32.6959L47.3438 27.5397L42.7735 23.6725C42.6563 23.5553 42.4219 23.3209 42.4219 22.9693L41.2501 17.11H35.3907C35.1563 17.11 34.8048 16.9928 34.5704 16.7584Z" fill="#DA251E"/>
<path d="M26.25 24.6094C25.7812 24.1406 25.0781 24.1406 24.6094 24.6094C24.1406 25.0781 24.1406 25.7812 24.6094 26.25L33.75 35.3906C34.2188 35.8594 34.9219 35.8594 35.3906 35.3906C35.8594 34.9219 35.8594 34.2188 35.3906 33.75L26.25 24.6094Z" fill="#DA251E"/>
<path d="M31.875 23.5547C32.4609 22.9688 33.2812 22.6172 34.1016 22.6172C34.9219 22.6172 35.7422 22.9688 36.4453 23.5547C37.0312 24.2578 37.3828 25.0781 37.3828 25.8984C37.3828 26.7188 37.0312 27.5391 36.4453 28.125C35.7422 28.8281 34.9219 29.0625 34.1016 29.0625C33.2812 29.0625 32.4609 28.8281 31.875 28.125C31.1719 27.5391 30.9375 26.7188 30.9375 25.8984C30.9375 25.0781 31.1719 24.2578 31.875 23.5547ZM33.5156 25.3125C33.2812 25.4297 33.2812 25.6641 33.2812 25.8984C33.2812 26.1328 33.2812 26.3672 33.5156 26.4844C33.6328 26.7188 33.8672 26.7188 34.1016 26.7188C34.3359 26.7188 34.5703 26.7188 34.6875 26.4844C34.9219 26.3672 35.0391 26.1328 35.0391 25.8984C35.0391 25.6641 34.9219 25.4297 34.6875 25.3125C34.5703 25.0781 34.3359 24.9609 34.1016 24.9609C33.8672 24.9609 33.6328 25.0781 33.5156 25.3125Z" fill="#DA251E"/>
<path d="M23.5547 31.875C24.2578 31.1719 25.0781 30.9375 25.8984 30.9375C26.7188 30.9375 27.5391 31.1719 28.125 31.875C28.8281 32.4609 29.0625 33.2812 29.0625 34.1016C29.0625 34.9219 28.8281 35.7422 28.125 36.4453C27.5391 37.0312 26.7188 37.3828 25.8984 37.3828C25.0781 37.3828 24.2578 37.0312 23.5547 36.4453C22.9688 35.7422 22.6172 34.9219 22.6172 34.1016C22.6172 33.2812 22.9688 32.4609 23.5547 31.875ZM25.8984 33.2812C25.6641 33.2812 25.4297 33.2812 25.3125 33.5156C25.0781 33.6328 24.9609 33.8672 24.9609 34.1016C24.9609 34.3359 25.0781 34.5703 25.3125 34.6875C25.4297 34.9219 25.6641 35.0391 25.8984 35.0391C26.1328 35.0391 26.3672 34.9219 26.4844 34.6875C26.7188 34.5703 26.7188 34.3359 26.7188 34.1016C26.7188 33.8672 26.7188 33.6328 26.4844 33.5156C26.3672 33.2812 26.1328 33.2812 25.8984 33.2812Z" fill="#DA251E"/>
</g>
<defs>
<clipPath id="clip0_232_2126">
<rect width="60" height="60" fill="white"/>
</clipPath>
</defs>
</svg>
