<svg width="60" height="60" viewBox="0 0 60 60" fill="none" xmlns="http://www.w3.org/2000/svg">
<g clip-path="url(#clip0_232_2153)">
<path d="M5.75064 16.7521V6.68684C5.75064 6.16945 6.17006 5.75004 6.68744 5.75004H17.5765C18.0939 5.75004 18.5133 6.16945 18.5133 6.68684C18.5133 7.20422 18.0939 7.62363 17.5765 7.62363H7.62412V15.8153H16.6397V12.9646L14.8941 14.5491C14.7151 14.7115 14.4897 14.7922 14.2646 14.7922C14.0241 14.7922 13.784 14.7001 13.6015 14.5173L11.4689 12.3813C11.1033 12.0152 11.1039 11.422 11.47 11.0565C11.8361 10.6909 12.4293 10.6914 12.7948 11.0576L14.2963 12.5614L18.8171 8.45801C19.2001 8.1102 19.7925 8.13891 20.1403 8.52199C20.4881 8.90508 20.4594 9.49746 20.0763 9.84527L18.5133 11.2639V16.752C18.5133 17.2693 18.0939 17.6887 17.5765 17.6887H6.68744C6.17006 17.6889 5.75064 17.2695 5.75064 16.7521ZM6.68732 35.9689H17.5764C18.0938 35.9689 18.5132 35.5495 18.5132 35.0322V29.5441L20.0762 28.1255C20.4593 27.7778 20.488 27.1854 20.1402 26.8022C19.7924 26.419 19.2001 26.3904 18.8169 26.7382L14.2962 30.8415L12.7947 29.3377C12.429 28.9714 11.836 28.971 11.4699 29.3366C11.1038 29.7021 11.1033 30.2953 11.4688 30.6614L13.6014 32.7974C13.784 32.9802 14.0238 33.0723 14.2644 33.0723C14.4894 33.0723 14.7149 32.9917 14.894 32.8291L16.6396 31.2446V34.0954H7.62412V25.9037H17.5764C18.0938 25.9037 18.5132 25.4843 18.5132 24.9669C18.5132 24.4495 18.0938 24.0301 17.5764 24.0301H6.68732C6.16994 24.0301 5.75053 24.4495 5.75053 24.9669V35.0322C5.75064 35.5496 6.17006 35.9689 6.68732 35.9689ZM18.8173 45.0182L14.296 49.1191L12.7943 47.6175C12.4285 47.2516 11.8354 47.2516 11.4695 47.6175C11.1037 47.9834 11.1037 48.5764 11.4695 48.9423L13.6021 51.0749C13.7846 51.2573 14.0243 51.3492 14.2646 51.3492C14.4894 51.3492 14.7149 51.2686 14.8938 51.1063L16.6396 49.5227V52.3757H7.62412V44.184H17.5764C18.0938 44.184 18.5132 43.7646 18.5132 43.2472C18.5132 42.7298 18.0938 42.3104 17.5764 42.3104H6.68732C6.16994 42.3104 5.75053 42.7298 5.75053 43.2472V53.3125C5.75053 53.8298 6.16994 54.2493 6.68732 54.2493H17.5764C18.0938 54.2493 18.5132 53.8298 18.5132 53.3125V47.8234L20.076 46.4059C20.4592 46.0583 20.488 45.4659 20.1404 45.0826C19.7929 44.6994 19.2004 44.6705 18.8173 45.0182ZM23.6687 7.62363H35.8499C36.3673 7.62363 36.7867 7.20422 36.7867 6.68684C36.7867 6.16945 36.3673 5.75004 35.8499 5.75004H23.6687C23.1513 5.75004 22.7319 6.16945 22.7319 6.68684C22.7319 7.20422 23.1513 7.62363 23.6687 7.62363ZM23.6687 12.6562H35.8499C36.3673 12.6562 36.7867 12.2368 36.7867 11.7195C36.7867 11.2021 36.3673 10.7827 35.8499 10.7827H23.6687C23.1513 10.7827 22.7319 11.2021 22.7319 11.7195C22.7319 12.2368 23.1513 12.6562 23.6687 12.6562ZM23.6687 25.9038H35.8499C36.3673 25.9038 36.7867 25.4844 36.7867 24.967C36.7867 24.4496 36.3673 24.0302 35.8499 24.0302H23.6687C23.1513 24.0302 22.7319 24.4496 22.7319 24.967C22.7319 25.4844 23.1513 25.9038 23.6687 25.9038ZM23.6687 30.9364H31.9833C32.5007 30.9364 32.9201 30.517 32.9201 29.9996C32.9201 29.4823 32.5007 29.0629 31.9833 29.0629H23.6687C23.1513 29.0629 22.7319 29.4823 22.7319 29.9996C22.7319 30.517 23.1513 30.9364 23.6687 30.9364ZM26.8842 42.3104H23.6687C23.1513 42.3104 22.7319 42.7298 22.7319 43.2472C22.7319 43.7646 23.1513 44.184 23.6687 44.184H26.8842C27.4016 44.184 27.821 43.7646 27.821 43.2472C27.821 42.7298 27.4016 42.3104 26.8842 42.3104ZM26.8842 47.343H23.6687C23.1513 47.343 22.7319 47.7625 22.7319 48.2798C22.7319 48.7972 23.1513 49.2166 23.6687 49.2166H26.8842C27.4016 49.2166 27.821 48.7972 27.821 48.2798C27.821 47.7625 27.4016 47.343 26.8842 47.343ZM56.05 44.7752C56.05 50.9919 50.9923 56.0496 44.7756 56.0496C38.5608 56.0496 33.5046 50.9919 33.5046 44.7752C33.5046 38.5604 38.5608 33.5043 44.7756 33.5043C50.9924 33.5043 56.05 38.5604 56.05 44.7752ZM54.1296 45.712H53.851C53.3336 45.712 52.9142 45.2926 52.9142 44.7752C52.9142 44.2579 53.3336 43.8384 53.851 43.8384H54.1296C53.6884 39.403 50.1496 35.8655 45.7125 35.4246V35.7033C45.7125 36.2207 45.2931 36.6401 44.7757 36.6401C44.2583 36.6401 43.8389 36.2207 43.8389 35.7033V35.4246C39.4036 35.8657 35.8661 39.4031 35.4251 43.8384H35.7004C36.2178 43.8384 36.6372 44.2579 36.6372 44.7752C36.6372 45.2926 36.2178 45.712 35.7004 45.712H35.425C35.8658 50.1491 39.4034 53.688 43.8388 54.1293V53.8506C43.8388 53.3332 44.2582 52.9138 44.7756 52.9138C45.293 52.9138 45.7124 53.3332 45.7124 53.8506V54.1293C50.1497 53.6882 53.6887 50.1492 54.1296 45.712ZM49.859 47.7116C49.6855 48.0122 49.3705 48.1804 49.0467 48.1804C48.8878 48.1804 48.7269 48.1399 48.5794 48.0547L46.1829 46.6718C45.7892 46.9648 45.3031 47.1404 44.7757 47.1404C43.4715 47.1404 42.4105 46.0794 42.4105 44.7752C42.4105 43.8052 42.9996 42.9707 43.8389 42.6075V38.2013C43.8389 37.6839 44.2583 37.2645 44.7757 37.2645C45.2931 37.2645 45.7125 37.6839 45.7125 38.2013V42.6075C46.5518 42.9707 47.1409 43.8052 47.1409 44.7752C47.1409 44.8688 47.134 44.9606 47.1233 45.0513L49.5158 46.432C49.964 46.6907 50.1176 47.2635 49.859 47.7116ZM45.2673 44.7752C45.2673 44.5059 45.0468 44.2869 44.7757 44.2869C44.5047 44.2869 44.2841 44.5059 44.2841 44.7752C44.2841 45.0463 44.5047 45.2668 44.7757 45.2668C45.0468 45.2668 45.2673 45.0463 45.2673 44.7752ZM59.9998 44.7752C59.9998 53.1698 53.1703 59.9993 44.7757 59.9993C44.4847 59.9993 0.937285 59.9993 0.937285 59.9993C0.419902 59.9993 0.000488281 59.5799 0.000488281 59.0625V0.936797C0.000488281 0.419414 0.419902 0 0.937285 0H41.6001C42.1174 0 42.5369 0.419414 42.5369 0.936797V20.0939H48.0446C49.2607 20.0939 50.2503 21.0834 50.2503 22.2996V26.8273C50.2503 27.3446 49.8308 27.7641 49.3135 27.7641H47.7355V29.8443C54.7181 31.2253 59.9998 37.3948 59.9998 44.7752ZM45.8619 27.7641H43.6895V29.5937C44.0485 29.5683 44.4104 29.5546 44.7757 29.5546C45.141 29.5546 45.503 29.5683 45.8619 29.5937V27.7641ZM48.0444 21.9674H41.507C41.3269 21.9674 41.1748 22.1195 41.1748 22.2996V25.8906H48.3765V22.2996C48.3767 22.1164 48.2276 21.9674 48.0444 21.9674ZM37.4655 58.1257C32.7529 55.5349 29.5518 50.5221 29.5518 44.7752C29.5518 37.3949 34.8334 31.2254 41.816 29.8443V27.7641H40.2381C39.7207 27.7641 39.3013 27.3446 39.3013 26.8273V22.2996C39.3013 21.3821 39.8646 20.5944 40.6633 20.2624V1.87359H1.87408V58.1258H37.4655V58.1257ZM58.1262 44.7752C58.1262 37.4156 52.1372 31.428 44.7757 31.428C37.4142 31.428 31.4253 37.4156 31.4253 44.7752C31.4253 52.1367 37.4142 58.1257 44.7757 58.1257C52.1372 58.1257 58.1262 52.1367 58.1262 44.7752Z" fill="#DA251E"/>
</g>
<defs>
<clipPath id="clip0_232_2153">
<rect width="60" height="60" fill="white"/>
</clipPath>
</defs>
</svg>
