<svg width="60" height="60" viewBox="0 0 60 60" fill="none" xmlns="http://www.w3.org/2000/svg">
<g clip-path="url(#clip0_232_2158)">
<path d="M20.0555 16.9771C21.7312 17.3914 24.5424 18.4696 24.5424 21.034V32.182C24.5424 32.6994 24.9618 33.1188 25.4792 33.1188C25.9965 33.1188 26.416 32.6994 26.416 32.182V21.034C26.416 18.2289 24.2617 16.0874 20.506 15.1586C18.8372 14.7446 17.1707 14.4714 15.5118 14.3377C17.938 13.1577 19.666 10.1727 19.666 6.68355C19.666 2.56102 17.1915 0 13.2083 0C9.22514 0 6.75049 2.5609 6.75049 6.68344C6.75049 10.1645 8.47045 13.1435 10.8879 14.3291C9.21143 14.4599 7.54807 14.7368 5.90334 15.1602C2.09686 16.1359 0.000488281 18.2218 0.000488281 21.0339V32.1819C0.000488281 32.6993 0.419902 33.1187 0.937285 33.1187C1.45467 33.1187 1.87408 32.6993 1.87408 32.1819V21.0339C1.87408 18.6315 4.31814 17.5007 6.36951 16.9748C10.8226 15.8284 15.4272 15.8291 20.0555 16.9771ZM8.62396 6.68344C8.62396 2.49832 11.4961 1.87348 13.2081 1.87348C14.9201 1.87348 17.7922 2.49844 17.7922 6.68344C17.7922 10.1692 15.7358 13.0049 13.2081 13.0049C10.6804 13.0049 8.62396 10.1692 8.62396 6.68344ZM6.51459 33.1187C5.99721 33.1187 5.57779 32.6993 5.57779 32.1819V23.5983C5.57779 23.0809 5.99721 22.6615 6.51459 22.6615C7.03197 22.6615 7.45139 23.0809 7.45139 23.5983V32.1819C7.45139 32.6993 7.03197 33.1187 6.51459 33.1187ZM19.9017 22.6616C20.4191 22.6616 20.8385 23.081 20.8385 23.5984V32.182C20.8385 32.6994 20.4191 33.1188 19.9017 33.1188C19.3844 33.1188 18.9649 32.6994 18.9649 32.182V23.5984C18.9649 23.081 19.3844 22.6616 19.9017 22.6616ZM54.0898 42.0389C52.4215 41.6251 50.7546 41.3521 49.0947 41.2186C51.5215 40.0393 53.2498 37.0553 53.2498 33.5672C53.2498 29.4446 50.7754 26.8836 46.7922 26.8836C42.8069 26.8836 40.3312 29.4446 40.3312 33.5672C40.3312 37.0479 42.0531 40.0266 44.473 41.211C42.7968 41.3416 41.1326 41.6182 39.4862 42.041C35.6803 43.0211 33.5844 45.108 33.5844 47.9176V59.0624C33.5844 59.5798 34.0038 59.9992 34.5212 59.9992C35.0386 59.9992 35.458 59.5798 35.458 59.0624V47.9176C35.458 45.5169 37.9027 44.3834 39.9529 43.8554C44.4127 42.7104 49.0172 42.711 53.6385 43.8572C55.3145 44.2737 58.1263 45.3551 58.1263 47.9175V59.0623C58.1263 59.5797 58.5457 59.9991 59.0631 59.9991C59.5805 59.9991 59.9999 59.5797 59.9999 59.0623V47.9175C59.9998 45.115 57.8458 42.9723 54.0898 42.0389ZM42.2046 33.5672C42.2046 29.3821 45.0788 28.7571 46.792 28.7571C48.504 28.7571 51.3762 29.3821 51.3762 33.5672C51.3762 37.0511 49.3198 39.8854 46.792 39.8854C44.2626 39.8854 42.2046 37.0511 42.2046 33.5672ZM41.0321 50.4788V59.0624C41.0321 59.5798 40.6126 59.9992 40.0953 59.9992C39.5779 59.9992 39.1585 59.5798 39.1585 59.0624V50.4788C39.1585 49.9614 39.5779 49.542 40.0953 49.542C40.6126 49.542 41.0321 49.9614 41.0321 50.4788ZM54.4224 50.4788V59.0624C54.4224 59.5798 54.0029 59.9992 53.4856 59.9992C52.9682 59.9992 52.5488 59.5798 52.5488 59.0624V50.4788C52.5488 49.9614 52.9682 49.542 53.4856 49.542C54.0029 49.542 54.4224 49.9614 54.4224 50.4788ZM29.638 58.1256H18.8686V50.7611H22.2669C22.7843 50.7611 23.2037 50.3416 23.2037 49.8243V44.8713C23.2037 44.3539 22.7843 43.9345 22.2669 43.9345H17.9319C17.4146 43.9345 16.9951 44.3539 16.9951 44.8713V48.8875H14.145V35.4739C14.145 34.9566 13.7256 34.5372 13.2082 34.5372C12.6908 34.5372 12.2714 34.9566 12.2714 35.4739V48.8876H7.76369C7.24631 48.8876 6.82689 49.307 6.82689 49.8244V56.1226C6.82689 56.64 7.24631 57.0594 7.76369 57.0594H13.2081C13.7255 57.0594 14.1449 56.64 14.1449 56.1226V50.7612H16.995V59.0624C16.995 59.5798 17.4144 59.9992 17.9318 59.9992H29.638C30.1554 59.9992 30.5748 59.5798 30.5748 59.0624C30.5748 58.545 30.1554 58.1256 29.638 58.1256ZM18.8686 45.8082H21.3301V48.8876H18.8686V45.8082ZM12.2714 55.1858H8.70049V50.7612H12.2714V55.1858Z" fill="#DA251E"/>
</g>
<defs>
<clipPath id="clip0_232_2158">
<rect width="60" height="60" fill="white"/>
</clipPath>
</defs>
</svg>
