<svg width="18" height="20" viewBox="0 0 18 20" fill="none" xmlns="http://www.w3.org/2000/svg">
<g clip-path="url(#clip0_380_1880)">
<path d="M1.2002 5.07611H16.8002M7.05019 9.01551V14.9246M10.9502 9.01551V14.9246M2.1752 5.07611L3.1502 16.8943C3.1502 17.4167 3.35564 17.9177 3.72134 18.2871C4.08703 18.6565 4.58302 18.864 5.10019 18.864H12.9002C13.4174 18.864 13.9134 18.6565 14.2791 18.2871C14.6447 17.9177 14.8502 17.4167 14.8502 16.8943L15.8252 5.07611M6.07519 5.07611V2.12157C6.07519 1.86037 6.17792 1.60987 6.36077 1.42517C6.54361 1.24048 6.79161 1.13672 7.05019 1.13672H10.9502C11.2088 1.13672 11.4568 1.24048 11.6396 1.42517C11.8225 1.60987 11.9252 1.86037 11.9252 2.12157V5.07611" stroke="#DA251E" stroke-width="2" stroke-linecap="round" stroke-linejoin="round"/>
</g>
<defs>
<clipPath id="clip0_380_1880">
<rect width="18" height="20" fill="white"/>
</clipPath>
</defs>
</svg>
