<svg width="50" height="50" viewBox="0 0 50 50" fill="none" xmlns="http://www.w3.org/2000/svg">
<g clip-path="url(#clip0_483_8510)">
<path d="M16.9265 36.0669C16.9138 36.0044 16.8953 35.9429 16.8709 35.8843C16.8464 35.8247 16.8162 35.7681 16.781 35.7153C16.7449 35.6616 16.7048 35.6118 16.6589 35.5669C16.6139 35.522 16.5642 35.481 16.5105 35.4458C16.4578 35.4106 16.4011 35.3804 16.3425 35.356C16.2839 35.3315 16.2224 35.313 16.1599 35.3003C16.0339 35.2749 15.904 35.2749 15.7781 35.3003C15.7156 35.313 15.6541 35.3315 15.5955 35.356C15.5369 35.3804 15.4802 35.4106 15.4265 35.4458C15.3738 35.481 15.323 35.522 15.2781 35.5669C15.2332 35.6118 15.1921 35.6616 15.157 35.7153C15.1218 35.7681 15.0916 35.8247 15.0671 35.8843C15.0427 35.9429 15.0242 36.0044 15.0115 36.0669C14.9988 36.1294 14.9919 36.1938 14.9919 36.2573C14.9919 36.3208 14.9988 36.3853 15.0115 36.4487C15.0242 36.5103 15.0427 36.5718 15.0671 36.6313C15.0916 36.6899 15.1218 36.7466 15.157 36.7993C15.1921 36.853 15.2332 36.9027 15.2781 36.9478C15.323 36.9927 15.3738 37.0337 15.4265 37.0698C15.4802 37.105 15.5369 37.1353 15.5955 37.1597C15.6541 37.1841 15.7156 37.2026 15.7781 37.2153C15.8416 37.228 15.905 37.2339 15.9685 37.2339C16.033 37.2339 16.0964 37.228 16.1599 37.2153C16.2224 37.2026 16.2839 37.1841 16.3425 37.1597C16.4011 37.1353 16.4578 37.105 16.5105 37.0698C16.5642 37.0337 16.614 36.9927 16.6589 36.9478C16.7048 36.9028 16.7449 36.853 16.781 36.7993C16.8162 36.7466 16.8464 36.6899 16.8709 36.6313C16.8953 36.5718 16.9138 36.5103 16.9265 36.4487C16.9392 36.3853 16.9451 36.3208 16.9451 36.2573C16.9451 36.1939 16.9392 36.1295 16.9265 36.0669Z" fill="#DA251E"/>
<path d="M6.11655 31.106C6.10386 31.0435 6.0853 30.9819 6.06089 30.9233C6.03647 30.8647 6.0061 30.8081 5.97095 30.7544C5.93481 30.7017 5.8938 30.6509 5.84888 30.606C5.80396 30.561 5.75415 30.521 5.70044 30.4849C5.64771 30.4497 5.59106 30.4194 5.53247 30.395C5.4729 30.3706 5.41235 30.3521 5.34985 30.3394C5.22388 30.314 5.09399 30.314 4.96802 30.3394C4.90552 30.3521 4.84399 30.3706 4.7854 30.395C4.72583 30.4194 4.66919 30.4497 4.61646 30.4849C4.56274 30.521 4.51294 30.561 4.46802 30.606C4.4231 30.6509 4.38208 30.7017 4.34692 30.7544C4.31177 30.8081 4.28149 30.8647 4.25708 30.9233C4.23267 30.9819 4.21411 31.0435 4.20142 31.106C4.18872 31.1694 4.18188 31.2329 4.18188 31.2964C4.18188 31.3608 4.18872 31.4243 4.20142 31.4878C4.21411 31.5503 4.23267 31.6118 4.25708 31.6704C4.28149 31.729 4.31177 31.7856 4.34692 31.8394C4.38208 31.8921 4.4231 31.9419 4.46802 31.9878C4.51294 32.0327 4.56274 32.0728 4.61646 32.1089C4.66919 32.144 4.72681 32.1743 4.7854 32.1987C4.84399 32.2231 4.90552 32.2417 4.96802 32.2544C5.03052 32.2671 5.09497 32.2739 5.15845 32.2739C5.22192 32.2739 5.28638 32.2671 5.34985 32.2544C5.41138 32.2417 5.4729 32.2231 5.53247 32.1987C5.59106 32.1743 5.6478 32.144 5.70044 32.1089C5.75415 32.0728 5.80396 32.0327 5.84888 31.9878C5.8938 31.9419 5.93481 31.8921 5.97095 31.8394C6.0062 31.7856 6.03647 31.729 6.06089 31.6704C6.0853 31.6118 6.10386 31.5503 6.11655 31.4878C6.12925 31.4243 6.13511 31.3608 6.13511 31.2964C6.13511 31.2329 6.12925 31.1694 6.11655 31.106Z" fill="#DA251E"/>
<path d="M49.5799 27.2884C49.0534 26.2915 48.0577 25.6047 46.9164 25.4514C46.1041 25.3424 45.3084 25.5095 44.6302 25.9167V14.0406H44.6395C45.1788 14.0406 45.616 13.6034 45.616 13.0641V5.69531C45.616 5.15596 45.1788 4.71875 44.6395 4.71875H12.441C11.9017 4.71875 11.4645 5.15596 11.4645 5.69531V13.064C11.4645 13.6033 11.9017 14.0405 12.441 14.0405H12.4503V27.7957C11.6814 28.2468 10.9649 28.7979 10.3175 29.4378V27.371C10.3175 26.8316 9.88027 26.3944 9.34092 26.3944H0.976562C0.437207 26.3944 0 26.8316 0 27.371V44.2043C0 44.7436 0.437207 45.1809 0.976562 45.1809H9.34082C9.88018 45.1809 10.3174 44.7436 10.3174 44.2043V41.4706C10.9499 41.8007 11.5641 42.1456 12.1664 42.4839C14.7257 43.9215 17.1431 45.2793 20.3426 45.2793H30.9112C34.3731 45.2793 39.3314 43.6482 41.3325 41.0116L48.9295 32.1136C48.942 32.0989 48.9541 32.0839 48.9657 32.0686C49.8613 30.8848 50.4346 28.882 49.5799 27.2884ZM8.36416 43.2277H6.13525V34.8438C6.13525 34.3045 5.69805 33.8673 5.15869 33.8673C4.61934 33.8673 4.18213 34.3045 4.18213 34.8438V43.2277H1.95322V28.3477H8.36426L8.36416 43.2277ZM34.2489 6.67197H43.6629V12.0874H34.2489V6.67197ZM24.7848 6.67197H32.2956V19.9354L28.9263 18.4854C28.803 18.4323 28.6717 18.4059 28.5402 18.4059C28.4088 18.4059 28.2774 18.4323 28.1542 18.4854L24.7849 19.9354L24.7848 6.67197ZM23.2713 22.2348C23.5457 22.4154 23.8925 22.446 24.1943 22.3161L28.5402 20.4458L32.8862 22.3161C33.0101 22.3693 33.1413 22.3956 33.2722 22.3956C33.4604 22.3956 33.6474 22.3412 33.8093 22.2348C34.0837 22.0541 34.2488 21.7477 34.2488 21.419V14.0406H42.677V27.6558L37.7458 32.3192C37.2587 30.8046 35.8366 29.7057 34.1628 29.7057H25.4695C25.3027 29.7057 25.1881 29.622 24.821 29.2895C24.7267 29.204 24.6293 29.1157 24.5203 29.0236C22.1723 26.9451 19.0855 26.0267 16.0495 26.5037C15.4879 26.5919 14.9379 26.727 14.4035 26.906V14.0406H22.8316V21.419C22.8316 21.7476 22.9968 22.0541 23.2713 22.2348ZM22.8316 6.67197V12.0874H13.4176V6.67197H22.8316ZM47.4239 30.8692L39.828 39.766C39.8145 39.7817 39.8017 39.7979 39.7893 39.8144C38.2378 41.884 33.8653 43.3263 30.9112 43.3263H20.3426C17.6541 43.3263 15.5543 42.1468 13.1229 40.7811C12.2274 40.278 11.3062 39.7605 10.3175 39.285V32.5444C11.733 30.2799 13.8669 28.8235 16.3524 28.433C18.8141 28.0466 21.322 28.7971 23.2332 30.4927C23.2395 30.4982 23.2458 30.5037 23.2521 30.5091C23.3381 30.5814 23.4213 30.6569 23.5095 30.7367C23.9628 31.1475 24.5271 31.6587 25.4694 31.6587H34.1627C35.1605 31.6587 35.9724 32.4711 35.9724 33.4697C35.9724 34.4684 35.1605 35.2808 34.1627 35.2808H19.8462C19.3068 35.2808 18.8696 35.718 18.8696 36.2573C18.8696 36.7967 19.3068 37.2339 19.8462 37.2339H34.1628C35.585 37.2339 36.8253 36.4406 37.4649 35.273L45.2357 27.9241C45.25 27.9106 45.2639 27.8967 45.2773 27.8823C45.7702 27.3563 46.3529 27.3465 46.6564 27.387C47.1732 27.4564 47.6205 27.7604 47.8557 28.2057C48.2778 28.9934 47.9499 30.1592 47.4239 30.8692Z" fill="#DA251E"/>
</g>
<defs>
<clipPath id="clip0_483_8510">
<rect width="50" height="50" fill="white"/>
</clipPath>
</defs>
</svg>
