<svg width="50" height="50" viewBox="0 0 50 50" fill="none" xmlns="http://www.w3.org/2000/svg">
<path d="M16.9263 33.6021C16.9136 33.5405 16.895 33.479 16.8706 33.4194C16.8462 33.3608 16.8159 33.3042 16.7808 33.2515C16.7446 33.1978 16.7046 33.148 16.6597 33.103C16.6147 33.058 16.564 33.017 16.5112 32.9819C16.4575 32.9458 16.4009 32.9165 16.3423 32.8921C16.2837 32.8666 16.2222 32.8481 16.1597 32.8354C16.0337 32.8101 15.9038 32.8101 15.7778 32.8354C15.7153 32.8481 15.6538 32.8666 15.5952 32.8921C15.5366 32.9165 15.48 32.9458 15.4263 32.9819C15.3735 33.017 15.3228 33.058 15.2778 33.103C15.2329 33.148 15.1919 33.1978 15.1567 33.2515C15.1216 33.3042 15.0913 33.3608 15.0669 33.4194C15.0425 33.479 15.0239 33.5405 15.0112 33.6021C14.9985 33.6655 14.9917 33.7301 14.9917 33.7935C14.9917 33.8569 14.9985 33.9214 15.0112 33.9839C15.0239 34.0464 15.0425 34.1078 15.0669 34.1665C15.0913 34.2261 15.1216 34.2826 15.1567 34.3354C15.1919 34.3892 15.2329 34.439 15.2778 34.4839C15.3228 34.5288 15.3735 34.5698 15.4263 34.605C15.48 34.6401 15.5366 34.6704 15.5952 34.6948C15.6538 34.7192 15.7153 34.7377 15.7778 34.7504C15.8413 34.7632 15.9048 34.7699 15.9683 34.7699C16.0327 34.7699 16.0962 34.7632 16.1597 34.7504C16.2222 34.7378 16.2837 34.7192 16.3423 34.6948C16.4009 34.6704 16.4575 34.64 16.5112 34.605C16.564 34.5698 16.6147 34.5288 16.6597 34.4839C16.7046 34.439 16.7446 34.3892 16.7808 34.3354C16.8159 34.2826 16.8462 34.2261 16.8706 34.1665C16.895 34.1079 16.9136 34.0464 16.9263 33.9839C16.939 33.9214 16.9448 33.8569 16.9448 33.7935C16.9448 33.7301 16.939 33.6655 16.9263 33.6021Z" fill="#DA251E"/>
<path d="M6.11631 28.6453C6.10361 28.5828 6.08506 28.5212 6.06064 28.4617C6.03623 28.4031 6.00586 28.3464 5.9707 28.2937C5.93457 28.24 5.89453 28.1901 5.84961 28.1452C5.80371 28.1002 5.75391 28.0592 5.7002 28.0231C5.64746 27.988 5.59082 27.9586 5.53223 27.9342C5.47266 27.9098 5.41211 27.8904 5.34961 27.8777C5.22363 27.8533 5.09375 27.8533 4.96777 27.8777C4.90527 27.8904 4.84375 27.9098 4.78516 27.9342C4.72656 27.9586 4.66895 27.988 4.61621 28.0231C4.5625 28.0592 4.5127 28.1002 4.46777 28.1452C4.42285 28.1901 4.38184 28.24 4.34668 28.2937C4.31152 28.3464 4.28125 28.4031 4.25684 28.4617C4.23242 28.5212 4.21387 28.5828 4.20117 28.6453C4.18848 28.7078 4.18164 28.7722 4.18164 28.8357C4.18164 28.8992 4.18848 28.9635 4.20117 29.0261C4.21387 29.0886 4.23242 29.15 4.25684 29.2087C4.28125 29.2683 4.31152 29.325 4.34668 29.3777C4.38184 29.4313 4.42285 29.4812 4.46777 29.5261C4.5127 29.571 4.5625 29.6121 4.61621 29.6471C4.66895 29.6824 4.72656 29.7126 4.78516 29.7371C4.84375 29.7615 4.90527 29.7799 4.96777 29.7926C5.03125 29.8053 5.09473 29.8122 5.1582 29.8122C5.22266 29.8122 5.28613 29.8052 5.34961 29.7926C5.41211 29.78 5.47266 29.7615 5.53223 29.7371C5.59082 29.7126 5.64746 29.6823 5.7002 29.6471C5.75391 29.6121 5.80371 29.571 5.84961 29.5261C5.89453 29.4812 5.93457 29.4314 5.9707 29.3777C6.00596 29.3249 6.03623 29.2682 6.06064 29.2087C6.08506 29.1501 6.10361 29.0886 6.11631 29.0261C6.129 28.9635 6.13486 28.8992 6.13486 28.8357C6.13486 28.7722 6.129 28.7079 6.11631 28.6453Z" fill="#DA251E"/>
<path d="M49.5799 24.8268C49.512 24.6982 49.4363 24.5749 49.3536 24.4572V8.16016C49.3536 7.6209 48.9163 7.18359 48.3771 7.18359H13.9972C13.4578 7.18359 13.0206 7.6209 13.0206 8.16016V11.8422H9.34102C8.80166 11.8422 8.36445 12.2795 8.36445 12.8188V23.9327H0.976562C0.437207 23.9327 0 24.37 0 24.9093V41.7438C0 42.283 0.437207 42.7203 0.976562 42.7203H9.34082C9.88018 42.7203 10.3174 42.283 10.3174 41.7438V39.0099C10.9499 39.3399 11.5641 39.685 12.1664 40.0232C14.7257 41.4609 17.1431 42.8188 20.3426 42.8188H30.9111C34.3731 42.8188 39.3314 41.1877 41.3324 38.5509L48.9295 29.6522C48.942 29.6376 48.9541 29.6226 48.9656 29.6072C49.8613 28.4232 50.4346 26.4203 49.5799 24.8268ZM8.36416 40.7672H6.13525V32.3826C6.13525 31.8434 5.69805 31.4061 5.15869 31.4061C4.61934 31.4061 4.18213 31.8434 4.18213 32.3826V40.7672H1.95322V25.8859H8.36426L8.36416 40.7672ZM14.9737 9.13672H47.4003V23.0888C47.2427 23.0451 47.0811 23.0118 46.9164 22.9896C46.1307 22.8839 45.3605 23.0369 44.6973 23.4156V12.8188C44.6973 12.2796 44.2601 11.8423 43.7207 11.8423H14.9737V9.13672ZM42.7441 13.7954V17.5681C40.8675 17.2364 39.3995 15.7042 39.1636 13.7954H42.7441ZM10.3176 13.7954H13.8981C13.6622 15.7042 12.1941 17.2362 10.3176 17.5682V13.7954ZM10.3174 24.9205C10.3174 24.9168 10.3175 24.9131 10.3175 24.9093V19.5421C13.2729 19.1851 15.6078 16.7824 15.8616 13.7954H37.2C37.4537 16.7824 39.7886 19.1851 42.744 19.5421V25.1308L37.7459 29.8579C37.2588 28.3433 35.8366 27.2441 34.1628 27.2441H30.4798C31.5875 26.1951 32.2797 24.7109 32.2797 23.0681C32.2797 19.8968 29.7009 17.3167 26.5311 17.3167C23.3612 17.3167 20.7823 19.8968 20.7823 23.0681C20.7823 23.5538 20.8429 24.0256 20.9566 24.4766C19.3923 23.9386 17.7133 23.7808 16.0495 24.0419C13.8873 24.3815 11.8974 25.415 10.3176 26.9763V24.9205H10.3174ZM30.3264 23.0682C30.3264 25.1624 28.6237 26.8663 26.531 26.8663C24.4382 26.8663 22.7354 25.1625 22.7354 23.0682C22.7354 20.9738 24.4381 19.2699 26.531 19.2699C28.6237 19.2699 30.3264 20.9737 30.3264 23.0682ZM47.4239 28.4078L39.828 37.3052C39.8145 37.3209 39.8017 37.337 39.7894 37.3535C38.2379 39.4233 33.8654 40.8657 30.9113 40.8657H20.3426C17.6541 40.8657 15.5543 39.6862 13.1229 38.3203C12.2273 37.8173 11.3061 37.2998 10.3174 36.8241V30.0831C11.7329 27.8184 13.8669 26.3618 16.3524 25.9714C18.8142 25.5851 21.322 26.3355 23.2331 28.0313C23.2394 28.0368 23.2457 28.0422 23.2521 28.0477C23.3379 28.12 23.4212 28.1954 23.5093 28.2753C23.9627 28.686 24.5269 29.1973 25.4694 29.1973H34.1626C35.1604 29.1973 35.9724 30.0097 35.9724 31.0085C35.9724 32.0072 35.1604 32.8197 34.1626 32.8197H19.8462C19.3068 32.8197 18.8696 33.257 18.8696 33.7963C18.8696 34.3355 19.3068 34.7729 19.8462 34.7729H34.1627C35.585 34.7729 36.8253 33.9794 37.4649 32.8118L45.2356 25.4625C45.25 25.4489 45.2638 25.4351 45.2772 25.4207C45.7701 24.8946 46.3527 24.8847 46.6562 24.9254C47.1731 24.9948 47.6203 25.2988 47.8555 25.7442C48.2779 26.5317 47.9499 27.6977 47.4239 28.4078Z" fill="#DA251E"/>
</svg>
