<svg width="24" height="24" viewBox="0 0 24 24" fill="none" xmlns="http://www.w3.org/2000/svg">
<path d="M11.999 6.19141C16.3904 6.19141 19.0475 7.75152 20.6064 9.25977C21.3931 10.0209 21.9115 10.7803 22.2314 11.3447C22.3856 11.6166 22.4929 11.8422 22.5615 11.999C22.4929 12.1559 22.3858 12.3819 22.2314 12.6543C21.9115 13.2189 21.3931 13.9789 20.6064 14.7402C19.0475 16.2489 16.3903 17.8096 11.999 17.8096C8.06291 17.8096 5.39347 16.2622 3.70215 14.7246C2.85254 13.9522 2.24787 13.1796 1.85742 12.6035C1.69374 12.362 1.56997 12.1549 1.48047 11.999C1.56996 11.8432 1.69396 11.6366 1.85742 11.3955C2.24784 10.8196 2.85259 10.0476 3.70215 9.27539C5.39346 7.73822 8.06284 6.19141 11.999 6.19141Z" stroke="#848283" stroke-width="1.5"/>
<circle cx="12.0001" cy="12.0001" r="3.34382" stroke="#848283" stroke-width="1.5"/>
</svg>
