<svg width="125" height="84" viewBox="0 0 125 84" fill="none" xmlns="http://www.w3.org/2000/svg">
<path d="M125 30.5172L93.8237 48.5488L87.3719 44.8173L62.2394 59.1013L37.3736 44.9657L31.1803 48.5488L0 30.5172L31.1803 12.586L58.1187 28.0777L62.2394 25.7465L66.6268 28.2262L93.8237 12.586L125 30.5172Z" fill="#848283"/>
<path d="M62.0262 20.2873L44.0844 10.1152L62.0262 0L79.9684 10.1152L62.0262 20.2873Z" fill="#DA251E"/>
<path d="M46.4606 71.7976L51.4988 67.6199V79.846H65.092L61.3369 84H50.667L46.4606 79.4684" fill="white"/>
<path d="M52.9362 67.6199H66.7079L61.5271 72.5174H52.9362" fill="white"/>
<path d="M27.58 71.7623L32.6178 67.5846V79.8107H46.211L42.4563 83.9647H31.7859L27.58 79.4331" fill="white"/>
<path d="M34.0555 67.5846H47.8269L42.6465 72.4821H34.0555" fill="white"/>
<path d="M78.0792 71.7623L83.117 67.5846V79.8107H96.7102L92.9555 83.9647H82.2852L78.0792 79.4331" fill="white"/>
<path d="M84.5548 67.5846H98.3262L93.1458 72.4821H84.5548" fill="white"/>
<path d="M6.19165 71.9276L10.8614 67.5846H23.302L16.6127 71.9276H6.19165Z" fill="white"/>
<path d="M25.3342 67.5846L6.72656 79.5748V83.9647H23.3021L27.1877 79.4684L15.0561 79.5748L25.3697 72.4821L25.3342 67.5846Z" fill="white"/>
<path d="M73.1598 74.1344H69.8091V77.5565H73.1598V74.1344Z" fill="white"/>
<path d="M97.1263 71.9746L101.76 67.5846H114.237L118.906 71.9746H97.1263Z" fill="white"/>
<path d="M110.779 73.5679H105.075V83.9647H110.779V73.5679Z" fill="white"/>
</svg>
