<svg xmlns="http://www.w3.org/2000/svg">
<defs>
<clipPath id="a">
      <path d="M0 0h16v16H0z"/>
    </clipPath>
  

    <clipPath id="a">
      <path d="M0 0h16v16H0z"/>
    </clipPath>
  

    <clipPath id="a">
      <path d="M0 0h16v16H0z"/>
    </clipPath>
</defs>
<symbol id="arrow1" viewBox="0 0 13 13">
  <path d="M12.75 0.25V10.75H11.25V2.81055L2 12.0605L0.939453 11L10.1895 1.75H2.25V0.25H12.75Z"/>
</symbol>
<symbol id="arrow2" viewBox="0 0 23 23">
  <path d="M23 0V20H21V3.41406L2 22.4141L0.585938 21L19.5859 2H3V0H23Z"/>
</symbol>
<symbol id="cancel1" viewBox="0 0 16 16">
  <g clip-path="url(#a)">
    <path d="m11.369 5.769-1.136-1.136L8 6.873l-2.232-2.24-1.136 1.136L6.873 8l-2.24 2.232 1.136 1.136L8 9.129l2.232 2.24 1.136-1.136L9.129 8l2.24-2.232Z"/>
    <path d="M8 0a8 8 0 1 0 0 16A8 8 0 0 0 8 0Zm0 14.552A6.552 6.552 0 0 1 8 1.448 6.56 6.56 0 0 1 14.552 8 6.552 6.552 0 0 1 8 14.552Z"/>
  </g>
  
</symbol>
<symbol id="cart1" viewBox="0 0 24 25">
  <path fill-rule="evenodd" clip-rule="evenodd" d="M11.5861 0C13.7265 4.92893e-05 14.9811 0.428333 15.9445 1.3916C16.8352 2.28238 17.3361 3.49031 17.3361 4.75V6.25H19.673C20.1775 6.24994 20.6766 6.35878 21.135 6.56934C21.5933 6.77997 22.0007 7.08795 22.3293 7.4707C22.6578 7.85357 22.9006 8.30302 23.0393 8.78809C23.1779 9.27332 23.2097 9.78345 23.133 10.2822L21.5637 20.4717C21.3912 21.5933 20.8234 22.6166 19.9621 23.3555C19.1546 24.048 18.139 24.4481 17.0803 24.4951L16.8684 24.5H6.30293C5.16856 24.4998 4.07107 24.0932 3.21015 23.3545C2.34938 22.6157 1.78101 21.5929 1.60859 20.4717L0.0402316 10.2822C-0.0364561 9.7835 -0.00461516 9.27326 0.133982 8.78809C0.272606 8.30311 0.514531 7.85352 0.842966 7.4707C1.17145 7.0879 1.579 6.78004 2.0373 6.56934C2.49559 6.35873 2.99486 6.25006 3.49922 6.25H5.83613V4.75C5.83613 3.49046 6.33628 2.28235 7.22676 1.3916C8.19016 0.428193 9.44568 5.56339e-05 11.5861 0ZM3.49922 8.25C3.2833 8.25006 3.06946 8.29662 2.87324 8.38672C2.67686 8.47702 2.5013 8.6094 2.36054 8.77344C2.21993 8.93746 2.11619 9.13015 2.05683 9.33789C1.99749 9.54565 1.98402 9.76397 2.01679 9.97754L3.58515 20.168L3.633 20.4082C3.76959 20.9624 4.07668 21.4626 4.51289 21.8369C5.01121 22.2645 5.64634 22.4998 6.30293 22.5H16.8684L17.1135 22.4893C17.6821 22.4386 18.223 22.2111 18.6594 21.8369C19.1581 21.4092 19.4872 20.8173 19.5871 20.168L21.1564 9.97754C21.1892 9.76393 21.1748 9.54568 21.1154 9.33789C21.056 9.13005 20.9525 8.93749 20.8117 8.77344C20.6709 8.6094 20.4964 8.47699 20.3 8.38672C20.1528 8.31913 19.9955 8.27616 19.8352 8.25879L19.673 8.25H17.3361V11C17.3361 11.5522 16.8882 11.9998 16.3361 12C15.784 11.9998 15.3361 11.5521 15.3361 11V8.25H7.83613V11C7.83613 11.5522 7.38824 11.9998 6.83613 12C6.28404 11.9998 5.83613 11.5521 5.83613 11V8.25H3.49922ZM11.5861 2C9.7274 2.00005 9.08384 2.36265 8.64082 2.80566C8.12541 3.32134 7.83613 4.0209 7.83613 4.75V6.25H15.3361V4.75C15.3361 4.02074 15.0461 3.32137 14.5305 2.80566C14.0875 2.36274 13.4446 2.00005 11.5861 2Z"/>
</symbol>
<symbol id="check1" viewBox="0 0 16 16">
  <g clip-path="url(#a)">
    <path d="M11 5.063 7.128 9.005 5.144 7.014 4.08 8.08l3.128 3.12 5.024-4.872L11 5.063Z"/>
    <path d="M8 0a8 8 0 1 0 0 16A8 8 0 0 0 8 0Zm0 14.552A6.552 6.552 0 0 1 8 1.448 6.56 6.56 0 0 1 14.552 8 6.552 6.552 0 0 1 8 14.552Z"/>
  </g>
  
</symbol>
<symbol id="chevron1" viewBox="0 0 14 24">
  <path d="M11.8621 0.403595L13.2654 1.8284L2.93335 11.9993L13.2654 22.1712L11.8621 23.597L0.80835 12.7122L0.0837402 12.0003L11.8621 0.403595Z"/>
</symbol>
<symbol id="chevron2" viewBox="0 0 13 8">
  <path d="M12.0596 2.03613L6.5 7.22559L0.94043 2.03613L1.96387 0.94043L6.5 5.17383L11.0361 0.94043L12.0596 2.03613Z"/>
</symbol>
<symbol id="chevron3" viewBox="0 0 10 17">
  <path d="M1.63599 0.875427L9.10474 8.65277L1.63599 16.4301L0.399658 15.2426L6.72778 8.65277L0.399658 2.06293L1.63599 0.875427Z"/>
</symbol>
<symbol id="chevron4" viewBox="0 0 9 14">
  <path d="M3.55 7.13548L8.5 2.18548L7.086 0.771484L0.722 7.13548L7.086 13.4995L8.5 12.0855L3.55 7.13548Z"/>
</symbol>
<symbol id="close1" viewBox="0 0 20 20">
  <path d="M20 2.01429L17.9857 0L10 7.98571L2.01429 0L0 2.01429L7.98571 10L0 17.9857L2.01429 20L10 12.0143L17.9857 20L20 17.9857L12.0143 10L20 2.01429Z"/>
</symbol>
<symbol id="filter1" viewBox="0 0 18 18">
  <path d="M0.576923 3.27468H3.595C3.85092 4.24745 4.73777 4.96699 5.78969 4.96699C6.84162 4.96699 7.72846 4.24745 7.98438 3.27468H17.4231C17.7417 3.27468 18 3.01637 18 2.69776C18 2.37914 17.7417 2.12084 17.4231 2.12084H7.98431C7.72838 1.14807 6.84154 0.428528 5.78962 0.428528C4.73769 0.428528 3.85085 1.14807 3.59492 2.12084H0.576923C0.258308 2.12084 0 2.37914 0 2.69776C0 3.01637 0.258308 3.27468 0.576923 3.27468ZM5.78969 1.58237C6.40469 1.58237 6.90508 2.08276 6.90508 2.69776C6.90508 3.31276 6.40469 3.81314 5.78969 3.81314C5.17469 3.81314 4.67431 3.31276 4.67431 2.69776C4.67431 2.08276 5.17469 1.58237 5.78969 1.58237Z"/>
  <path d="M17.4231 8.42308H13.5777C13.3218 7.45031 12.4349 6.73077 11.383 6.73077C10.3311 6.73077 9.44423 7.45031 9.18831 8.42308H0.576923C0.258308 8.42308 0 8.68139 0 9C0 9.31862 0.258308 9.57693 0.576923 9.57693H9.18838C9.44431 10.5496 10.3312 11.2692 11.3831 11.2692C12.435 11.2692 13.3218 10.5496 13.5778 9.57693H17.4232C17.7418 9.57693 18.0001 9.31862 18.0001 9C18.0001 8.68139 17.7417 8.42308 17.4231 8.42308ZM11.3831 10.1154C10.7681 10.1154 10.2677 9.615 10.2677 9C10.2677 8.385 10.7681 7.88462 11.3831 7.88462C11.9981 7.88462 12.4985 8.385 12.4985 9C12.4985 9.615 11.9981 10.1154 11.3831 10.1154Z"/>
  <path d="M17.4231 14.7253H7.98431C7.72838 13.7526 6.84154 13.033 5.78962 13.033C4.73769 13.033 3.85085 13.7526 3.59492 14.7253H0.576923C0.258308 14.7253 0 14.9836 0 15.3022C0 15.6208 0.258308 15.8791 0.576923 15.8791H3.595C3.85092 16.8519 4.73777 17.5714 5.78969 17.5714C6.84162 17.5714 7.72846 16.8519 7.98438 15.8791H17.4231C17.7417 15.8791 18 15.6208 18 15.3022C18 14.9836 17.7417 14.7253 17.4231 14.7253ZM5.78969 16.4176C5.17469 16.4176 4.67431 15.9172 4.67431 15.3022C4.67431 14.6872 5.17469 14.1868 5.78969 14.1868C6.40469 14.1868 6.90508 14.6872 6.90508 15.3022C6.90508 15.9172 6.40469 16.4176 5.78969 16.4176Z"/>
</symbol>
<symbol id="heart1" viewBox="0 0 25 23">
  <path fill-rule="evenodd" clip-rule="evenodd" d="M5.06292 0.338067C6.01692 0.0362851 7.02304 -0.064869 8.018 0.041192C9.01312 0.147346 9.97613 0.457964 10.8451 0.954278C11.3636 1.25044 11.8414 1.6102 12.27 2.02166C12.6984 1.61481 13.1759 1.25933 13.6928 0.966973C14.5611 0.476021 15.5219 0.169428 16.5141 0.0665826C17.5064 -0.036209 18.5097 0.0667453 19.4604 0.369317C20.411 0.671933 21.2892 1.16789 22.0395 1.82537C22.7896 2.48277 23.396 3.28814 23.8207 4.19061C24.2454 5.09319 24.4798 6.07436 24.5082 7.07147C24.5365 8.06868 24.3586 9.06212 23.9858 9.98748C23.6129 10.9127 23.0529 11.7514 22.3412 12.4504C22.3159 12.4753 22.2894 12.499 22.2621 12.5207L12.9692 21.7248C12.5795 22.1105 11.9516 22.1106 11.5619 21.7248L2.1928 12.4455C1.47584 11.7477 0.910664 10.9084 0.533625 9.98162C0.156714 9.05491 -0.0238509 8.05983 0.00237518 7.05975C0.0287267 6.05935 0.261631 5.074 0.686945 4.16815C1.11231 3.26242 1.72121 2.45426 2.47405 1.7951C3.22701 1.13596 4.10884 0.639949 5.06292 0.338067ZM7.80609 2.02947C7.08552 1.95266 6.35636 2.02574 5.66546 2.24432C4.97469 2.46293 4.3366 2.82274 3.79144 3.29998C3.24624 3.77734 2.80551 4.3628 2.49749 5.01873C2.1896 5.67454 2.02054 6.38727 2.0014 7.1115C1.98237 7.83589 2.11311 8.55746 2.38616 9.22869C2.62515 9.81603 2.96886 10.3545 3.39886 10.8185L3.58831 11.0129L3.59417 11.0187L12.2651 19.6066L20.9369 11.0187C20.9559 11 20.9756 10.9819 20.9955 10.965C21.4838 10.4705 21.8714 9.8845 22.1313 9.23943C22.401 8.56963 22.5296 7.85088 22.5092 7.12908C22.4887 6.40696 22.3187 5.69583 22.0112 5.04217C21.7036 4.38866 21.2643 3.80532 20.7211 3.32928C20.1777 2.85315 19.5414 2.49468 18.853 2.27557C18.1646 2.05654 17.4386 1.98142 16.7201 2.05584C16.0016 2.13032 15.306 2.35265 14.6772 2.70818C14.0484 3.06382 13.499 3.54583 13.0649 4.12322C12.8754 4.37485 12.5781 4.52247 12.2631 4.52166C11.9479 4.52074 11.6514 4.37124 11.4633 4.11834C11.031 3.53666 10.4823 3.05105 9.85296 2.69158C9.22367 2.33218 8.5267 2.10634 7.80609 2.02947Z"/>
</symbol>
<symbol id="info1" viewBox="0 0 6 15">
  <path d="M2.43915 0C3.41788 0 4.20945 0.791573 4.20945 1.7703C4.20945 2.74903 3.41788 3.5406 2.43915 3.5406C1.46042 3.5406 0.668848 2.74903 0.668848 1.7703C0.668848 0.791573 1.46042 0 2.43915 0ZM4.04991 4.65126H4.00389H1.15668H1.05236C0.469421 4.65126 0 5.12375 0 5.70362C0 6.28656 0.472489 6.75598 1.05236 6.75598H1.15668V12.8922H0V15H5.20352V12.8922H4.05298V4.65126H4.04991Z"/>
</symbol>
<symbol id="mark1" viewBox="0 0 12 11">
  <path d="M11.8135 1.58105L5.43652 10.5088L0.317383 5.73145L1.68262 4.26855L5.13379 7.49023L10.1865 0.418945L11.8135 1.58105Z"/>
</symbol>
<symbol id="minus1" viewBox="0 0 14 2">
  <path d="M13.75 1.75H0.25V0.25H13.75V1.75Z"/>
</symbol>
<symbol id="phone1" viewBox="0 0 17 17">
  <path fill-rule="evenodd" clip-rule="evenodd" d="M6 1.08301L6.11328 1.0918C6.37305 1.13141 6.5966 1.30559 6.69629 1.55469L8.36328 5.72168C8.49981 6.0634 8.3683 6.45421 8.05273 6.64355L6.58594 7.52246C7.29715 8.709 8.29015 9.70169 9.47656 10.4131L10.3564 8.94727C10.5458 8.6317 10.9366 8.50019 11.2783 8.63672L15.4453 10.3037C15.73 10.4176 15.917 10.6934 15.917 11V14.333C15.917 14.9739 15.6621 15.5888 15.209 16.042C14.7558 16.4952 14.1409 16.75 13.5 16.75C13.4848 16.75 13.4692 16.7499 13.4541 16.749C10.0208 16.5403 6.7828 15.0816 4.35059 12.6494C1.91837 10.2172 0.459714 6.97922 0.250977 3.5459C0.250056 3.53075 0.25 3.51518 0.25 3.5C0.25 2.85906 0.504795 2.24423 0.958008 1.79102C1.41121 1.3379 2.02613 1.08301 2.66699 1.08301H6ZM2.66699 2.58301C2.42395 2.58301 2.19045 2.67976 2.01855 2.85156C1.85172 3.0184 1.75649 3.24319 1.75098 3.47852C1.94274 6.53735 3.24358 9.42131 5.41113 11.5889C7.57845 13.7562 10.4621 15.0561 13.5205 15.248C13.7562 15.2428 13.9814 15.1485 14.1484 14.9814C14.3202 14.8096 14.417 14.576 14.417 14.333V11.5078L11.3145 10.2666L10.3936 11.8027C10.1927 12.1374 9.76804 12.2615 9.41797 12.0889C7.46063 11.1234 5.87657 9.53937 4.91113 7.58203C4.73849 7.23196 4.86256 6.80727 5.19727 6.60645L6.73242 5.68457L5.49219 2.58301H2.66699Z"/>
  <path d="M11 3.58301C11.6409 3.58301 12.2558 3.8378 12.709 4.29102C13.1622 4.74423 13.417 5.35906 13.417 6C13.417 6.4141 13.0811 6.74982 12.667 6.75C12.2528 6.75 11.917 6.41421 11.917 6C11.917 5.75689 11.8203 5.52347 11.6484 5.35156C11.4765 5.17965 11.2431 5.08301 11 5.08301C10.5858 5.08301 10.25 4.74722 10.25 4.33301C10.2502 3.91894 10.5859 3.58301 11 3.58301Z"/>
  <path d="M11 0.25C12.525 0.25 13.9871 0.856236 15.0654 1.93457C16.1438 3.0129 16.75 4.47501 16.75 6C16.75 6.41421 16.4142 6.75 16 6.75C15.5858 6.75 15.25 6.41421 15.25 6C15.25 4.87283 14.8019 3.79215 14.0049 2.99512C13.2079 2.19809 12.1272 1.75 11 1.75C10.5858 1.75 10.25 1.41421 10.25 1C10.25 0.585786 10.5858 0.25 11 0.25Z"/>
</symbol>
<symbol id="placemark1" viewBox="0 0 18 21">
  <path fill-rule="evenodd" clip-rule="evenodd" d="M9.00017 5.00031C10.0609 5.00032 11.0782 5.42129 11.8283 6.1712C12.5784 6.92135 13.0002 7.93946 13.0002 9.00031C13.0001 10.061 12.5784 11.0784 11.8283 11.8284C11.0782 12.5785 10.0609 13.0003 9.00017 13.0003C7.93939 13.0003 6.92218 12.5785 6.17205 11.8284C5.42197 11.0784 5.00025 10.0611 5.00017 9.00031C5.00017 7.93944 5.4219 6.92135 6.17205 6.1712C6.92216 5.42129 7.93949 5.00031 9.00017 5.00031ZM9.00017 7.00031C8.46976 7.00031 7.96118 7.21119 7.58611 7.58624C7.21113 7.9613 7.00017 8.46994 7.00017 9.00031C7.00025 9.53063 7.21111 10.0394 7.58611 10.4144C7.96117 10.7893 8.46983 11.0003 9.00017 11.0003C9.53051 11.0003 10.0392 10.7893 10.4142 10.4144C10.7892 10.0394 11.0001 9.53062 11.0002 9.00031C11.0002 8.46996 10.7892 7.9613 10.4142 7.58624C10.0392 7.21119 9.53058 7.00032 9.00017 7.00031Z"/>
  <path fill-rule="evenodd" clip-rule="evenodd" d="M9.00017 0.000305176C10.7801 0.000318936 12.5202 0.528061 14.0002 1.51691C15.4801 2.50577 16.6334 3.91157 17.3146 5.55597C17.9958 7.20047 18.1745 9.01036 17.8273 10.7562C17.4801 12.5019 16.623 14.1059 15.3644 15.3646L11.1213 19.6068C10.5589 20.1686 9.79608 20.4845 9.00115 20.4847C8.20604 20.4847 7.44258 20.1697 6.88006 19.6077L2.63592 15.3646C1.37734 14.1059 0.520283 12.5019 0.173027 10.7562C-0.174203 9.01035 0.00451952 7.20048 0.685722 5.55597C1.36694 3.91156 2.52021 2.50577 4.00017 1.51691C5.48017 0.528067 7.22023 0.00030593 9.00017 0.000305176ZM9.00017 2.00031C7.61582 2.00031 6.26259 2.41094 5.1115 3.17999C3.96037 3.94914 3.0632 5.04254 2.53338 6.32159C2.00359 7.60059 1.86493 9.00775 2.13494 10.3655C2.40498 11.7232 3.07125 12.9706 4.04998 13.9495L8.29412 18.1927L8.36736 18.2591C8.54522 18.4046 8.76933 18.4847 9.00115 18.4847C9.26591 18.4845 9.51984 18.3798 9.70721 18.1927L13.9504 13.9495C14.9291 12.9706 15.5954 11.7232 15.8654 10.3655C16.1354 9.00776 15.9968 7.60058 15.467 6.32159C14.9372 5.04255 14.04 3.94914 12.8888 3.17999C11.7378 2.41094 10.3845 2.00032 9.00017 2.00031Z"/>
</symbol>
<symbol id="play" viewBox="0 0 23 24">
  <path d="M23 12 0 24V0l23 12Z"/>
</symbol>
<symbol id="plus1" viewBox="0 0 14 14">
  <path d="M7.75 6.25H13.75V7.75H7.75V13.75H6.25V7.75H0.25V6.25H6.25V0.25H7.75V6.25Z"/>
</symbol>
<symbol id="plus2" viewBox="0 0 24 24">
  <path fill-rule="evenodd" clip-rule="evenodd" d="M12 0C18.6274 0 24 5.37258 24 12C24 18.6274 18.6274 24 12 24C5.37258 24 0 18.6274 0 12C0 5.37258 5.37258 0 12 0ZM11 11H7V13H11V17H13V13H17V11H13V7H11V11Z"/>
</symbol>
<symbol id="search1" viewBox="0 0 19 19">
  <path fill-rule="evenodd" clip-rule="evenodd" d="M7.54883 0C8.54116 0 9.52401 0.196902 10.4404 0.579102C11.3568 0.96127 12.189 1.52112 12.8896 2.22656C13.5903 2.93206 14.1456 3.76955 14.5244 4.69043C14.9032 5.61115 15.0986 6.59758 15.0986 7.59375C15.0986 8.59009 14.9032 9.57718 14.5244 10.498C14.2725 11.1105 13.941 11.6847 13.542 12.209L18.5508 17.252C18.9397 17.6438 18.9375 18.2769 18.5459 18.666C18.1541 19.0551 17.521 19.0528 17.1318 18.6611L12.1309 13.627C11.6127 14.0252 11.0456 14.357 10.4404 14.6094C9.52401 14.9916 8.54116 15.1885 7.54883 15.1885C6.55668 15.1884 5.57446 14.9915 4.6582 14.6094C3.7419 14.2272 2.90963 13.6673 2.20898 12.9619C1.50832 12.2564 0.953057 11.4189 0.574219 10.498C0.195385 9.57718 -1.47454e-08 8.59009 0 7.59375C5.90527e-05 6.59756 0.195442 5.61115 0.574219 4.69043C0.953058 3.76956 1.50831 2.93205 2.20898 2.22656C2.90964 1.52115 3.74189 0.961257 4.6582 0.579102C5.57446 0.196985 6.55667 5.47139e-05 7.54883 0ZM7.54883 2C6.82118 2.00005 6.10037 2.14428 5.42773 2.4248C4.75511 2.70534 4.14346 3.11674 3.62793 3.63574C3.11231 4.1549 2.70227 4.77196 2.42285 5.45117C2.14353 6.13021 2.00006 6.85838 2 7.59375C2 8.3293 2.14346 9.05811 2.42285 9.7373C2.70227 10.4165 3.11231 11.0336 3.62793 11.5527C4.14346 12.0717 4.75511 12.4831 5.42773 12.7637C6.10037 13.0442 6.82118 13.1884 7.54883 13.1885C8.27661 13.1885 8.99814 13.0443 9.6709 12.7637C10.3435 12.4831 10.9552 12.0717 11.4707 11.5527C11.9863 11.0336 12.3954 10.4164 12.6748 9.7373C12.9542 9.05808 13.0986 8.32934 13.0986 7.59375C13.0986 6.85832 12.9542 6.13026 12.6748 5.45117C12.3954 4.772 11.9863 4.15488 11.4707 3.63574C10.9552 3.11674 10.3435 2.70535 9.6709 2.4248C8.99814 2.14423 8.27661 2 7.54883 2Z"/>
</symbol>
<symbol id="share" viewBox="0 0 16 16">
  <path d="M13 10a2.98 2.98 0 0 0-2.305 1.102L5.907 8.708C5.962 8.48 6 8.245 6 8c0-.245-.038-.48-.093-.708l4.788-2.394A2.982 2.982 0 0 0 13 6a3 3 0 1 0-3-3c0 .245.038.48.093.708L5.305 6.102A2.98 2.98 0 0 0 3 5a3 3 0 0 0 0 6 2.98 2.98 0 0 0 2.305-1.102l4.788 2.394A2.994 2.994 0 0 0 10 13a3 3 0 1 0 3-3Zm0-8.667c.92 0 1.667.748 1.667 1.667S13.919 4.667 13 4.667a1.668 1.668 0 0 1 0-3.333ZM3 9.667a1.668 1.668 0 0 1 0-3.333 1.668 1.668 0 0 1 0 3.333Zm10 5a1.668 1.668 0 0 1 0-3.333 1.668 1.668 0 0 1 0 3.333Z"/>
</symbol>
<symbol id="spinner1" viewBox="0 0 27 22">
  <path d="M4.71659 9.6673L0.499999 9.6673L6.74934 15.951L12.8613 9.66729L7.49102 9.6673C8.15029 5.74514 11.5291 2.76209 15.6083 2.76209C19.6875 2.76209 23.0663 5.74514 23.7256 9.66729L26.5 9.66729C25.827 4.21218 21.2121 1.00199e-06 15.6083 1.24694e-06C10.0045 1.49189e-06 5.38959 4.21218 4.71659 9.6673ZM24.2887 17.8154C25.5248 16.2134 26.2665 14.349 26.5 12.4294L23.7118 12.4294C23.5058 13.6309 23.0388 14.791 22.2971 15.8267L24.2887 17.8154ZM16.9818 19.2103L16.9818 22C18.8909 21.7652 20.7314 21.0056 22.3246 19.7627L20.3743 17.8154C19.3442 18.5336 18.1904 19.0169 16.9818 19.2103ZM10.8423 17.8016L8.89197 19.7489C10.4852 20.9918 12.3257 21.7652 14.2348 22L14.2348 19.2103C13.0399 19.0169 11.8724 18.5336 10.8423 17.8016Z"/>
</symbol>
<symbol id="time" viewBox="0 0 16 16">
  <g clip-path="url(#a)">
    <path d="M8.8 7.2V4H7.2v4.8H12V7.2H8.8Z"/>
    <path d="M8 0a8 8 0 1 0 0 16A8 8 0 0 0 8 0Zm0 14.552A6.552 6.552 0 0 1 8 1.448 6.56 6.56 0 0 1 14.552 8 6.552 6.552 0 0 1 8 14.552Z"/>
  </g>
  
</symbol>
<symbol id="user1" viewBox="0 0 19 25">
  <path d="M13 15C14.5913 15 16.117 15.6326 17.2422 16.7578C18.3674 17.883 19 19.4087 19 21V23.5C19 24.0523 18.5523 24.5 18 24.5C17.4477 24.5 17 24.0523 17 23.5V21C17 19.9391 16.5783 18.922 15.8281 18.1719C15.1248 17.4686 14.1869 17.0539 13.1982 17.0049L13 17H6C4.93913 17 3.92202 17.4217 3.17188 18.1719C2.42173 18.922 2 19.9391 2 21V23.5C2 24.0523 1.55228 24.5 1 24.5C0.447715 24.5 0 24.0523 0 23.5V21C0 19.4087 0.632594 17.883 1.75781 16.7578C2.88303 15.6326 4.4087 15 6 15H13Z"/>
  <path fill-rule="evenodd" clip-rule="evenodd" d="M9.5 0C11.0913 0 12.617 0.632594 13.7422 1.75781C14.8674 2.88303 15.5 4.4087 15.5 6L15.4922 6.29785C15.4185 7.7807 14.797 9.18738 13.7422 10.2422C12.6874 11.297 11.2807 11.9185 9.79785 11.9922L9.5 12C7.9087 12 6.38303 11.3674 5.25781 10.2422C4.203 9.18738 3.58146 7.7807 3.50781 6.29785L3.5 6C3.5 4.4087 4.13259 2.88303 5.25781 1.75781C6.38303 0.632594 7.9087 0 9.5 0ZM9.5 2C8.43913 2 7.42202 2.42173 6.67188 3.17188C5.92173 3.92202 5.5 4.93913 5.5 6L5.50488 6.19824C5.5539 7.18693 5.96859 8.12484 6.67188 8.82812C7.42202 9.57827 8.43913 10 9.5 10L9.69824 9.99512C10.6869 9.9461 11.6248 9.53141 12.3281 8.82812C13.0783 8.07798 13.5 7.06087 13.5 6L13.4951 5.80176C13.4461 4.81307 13.0314 3.87516 12.3281 3.17188C11.578 2.42173 10.5609 2 9.5 2Z"/>
</symbol>
</svg>