<svg xmlns="http://www.w3.org/2000/svg" width="16" height="16" fill="currentColor" viewBox="0 0 16 16">
  <g clip-path="url(#a)">
    <path d="m11.369 5.769-1.136-1.136L8 6.873l-2.232-2.24-1.136 1.136L6.873 8l-2.24 2.232 1.136 1.136L8 9.129l2.232 2.24 1.136-1.136L9.129 8l2.24-2.232Z"/>
    <path d="M8 0a8 8 0 1 0 0 16A8 8 0 0 0 8 0Zm0 14.552A6.552 6.552 0 0 1 8 1.448 6.56 6.56 0 0 1 14.552 8 6.552 6.552 0 0 1 8 14.552Z"/>
  </g>
  <defs>
    <clipPath id="a">
      <path d="M0 0h16v16H0z"/>
    </clipPath>
  </defs>
</svg>
