<svg width="24" height="25" viewBox="0 0 24 25" xmlns="http://www.w3.org/2000/svg">
  <path fill-rule="evenodd" clip-rule="evenodd" d="M11.5861 0C13.7265 4.92893e-05 14.9811 0.428333 15.9445 1.3916C16.8352 2.28238 17.3361 3.49031 17.3361 4.75V6.25H19.673C20.1775 6.24994 20.6766 6.35878 21.135 6.56934C21.5933 6.77997 22.0007 7.08795 22.3293 7.4707C22.6578 7.85357 22.9006 8.30302 23.0393 8.78809C23.1779 9.27332 23.2097 9.78345 23.133 10.2822L21.5637 20.4717C21.3912 21.5933 20.8234 22.6166 19.9621 23.3555C19.1546 24.048 18.139 24.4481 17.0803 24.4951L16.8684 24.5H6.30293C5.16856 24.4998 4.07107 24.0932 3.21015 23.3545C2.34938 22.6157 1.78101 21.5929 1.60859 20.4717L0.0402316 10.2822C-0.0364561 9.7835 -0.00461516 9.27326 0.133982 8.78809C0.272606 8.30311 0.514531 7.85352 0.842966 7.4707C1.17145 7.0879 1.579 6.78004 2.0373 6.56934C2.49559 6.35873 2.99486 6.25006 3.49922 6.25H5.83613V4.75C5.83613 3.49046 6.33628 2.28235 7.22676 1.3916C8.19016 0.428193 9.44568 5.56339e-05 11.5861 0ZM3.49922 8.25C3.2833 8.25006 3.06946 8.29662 2.87324 8.38672C2.67686 8.47702 2.5013 8.6094 2.36054 8.77344C2.21993 8.93746 2.11619 9.13015 2.05683 9.33789C1.99749 9.54565 1.98402 9.76397 2.01679 9.97754L3.58515 20.168L3.633 20.4082C3.76959 20.9624 4.07668 21.4626 4.51289 21.8369C5.01121 22.2645 5.64634 22.4998 6.30293 22.5H16.8684L17.1135 22.4893C17.6821 22.4386 18.223 22.2111 18.6594 21.8369C19.1581 21.4092 19.4872 20.8173 19.5871 20.168L21.1564 9.97754C21.1892 9.76393 21.1748 9.54568 21.1154 9.33789C21.056 9.13005 20.9525 8.93749 20.8117 8.77344C20.6709 8.6094 20.4964 8.47699 20.3 8.38672C20.1528 8.31913 19.9955 8.27616 19.8352 8.25879L19.673 8.25H17.3361V11C17.3361 11.5522 16.8882 11.9998 16.3361 12C15.784 11.9998 15.3361 11.5521 15.3361 11V8.25H7.83613V11C7.83613 11.5522 7.38824 11.9998 6.83613 12C6.28404 11.9998 5.83613 11.5521 5.83613 11V8.25H3.49922ZM11.5861 2C9.7274 2.00005 9.08384 2.36265 8.64082 2.80566C8.12541 3.32134 7.83613 4.0209 7.83613 4.75V6.25H15.3361V4.75C15.3361 4.02074 15.0461 3.32137 14.5305 2.80566C14.0875 2.36274 13.4446 2.00005 11.5861 2Z" />
</svg>
