<svg width="18" height="18" viewBox="0 0 18 18" xmlns="http://www.w3.org/2000/svg">
  <path d="M0.576923 3.27468H3.595C3.85092 4.24745 4.73777 4.96699 5.78969 4.96699C6.84162 4.96699 7.72846 4.24745 7.98438 3.27468H17.4231C17.7417 3.27468 18 3.01637 18 2.69776C18 2.37914 17.7417 2.12084 17.4231 2.12084H7.98431C7.72838 1.14807 6.84154 0.428528 5.78962 0.428528C4.73769 0.428528 3.85085 1.14807 3.59492 2.12084H0.576923C0.258308 2.12084 0 2.37914 0 2.69776C0 3.01637 0.258308 3.27468 0.576923 3.27468ZM5.78969 1.58237C6.40469 1.58237 6.90508 2.08276 6.90508 2.69776C6.90508 3.31276 6.40469 3.81314 5.78969 3.81314C5.17469 3.81314 4.67431 3.31276 4.67431 2.69776C4.67431 2.08276 5.17469 1.58237 5.78969 1.58237Z" />
  <path d="M17.4231 8.42308H13.5777C13.3218 7.45031 12.4349 6.73077 11.383 6.73077C10.3311 6.73077 9.44423 7.45031 9.18831 8.42308H0.576923C0.258308 8.42308 0 8.68139 0 9C0 9.31862 0.258308 9.57693 0.576923 9.57693H9.18838C9.44431 10.5496 10.3312 11.2692 11.3831 11.2692C12.435 11.2692 13.3218 10.5496 13.5778 9.57693H17.4232C17.7418 9.57693 18.0001 9.31862 18.0001 9C18.0001 8.68139 17.7417 8.42308 17.4231 8.42308ZM11.3831 10.1154C10.7681 10.1154 10.2677 9.615 10.2677 9C10.2677 8.385 10.7681 7.88462 11.3831 7.88462C11.9981 7.88462 12.4985 8.385 12.4985 9C12.4985 9.615 11.9981 10.1154 11.3831 10.1154Z" />
  <path d="M17.4231 14.7253H7.98431C7.72838 13.7526 6.84154 13.033 5.78962 13.033C4.73769 13.033 3.85085 13.7526 3.59492 14.7253H0.576923C0.258308 14.7253 0 14.9836 0 15.3022C0 15.6208 0.258308 15.8791 0.576923 15.8791H3.595C3.85092 16.8519 4.73777 17.5714 5.78969 17.5714C6.84162 17.5714 7.72846 16.8519 7.98438 15.8791H17.4231C17.7417 15.8791 18 15.6208 18 15.3022C18 14.9836 17.7417 14.7253 17.4231 14.7253ZM5.78969 16.4176C5.17469 16.4176 4.67431 15.9172 4.67431 15.3022C4.67431 14.6872 5.17469 14.1868 5.78969 14.1868C6.40469 14.1868 6.90508 14.6872 6.90508 15.3022C6.90508 15.9172 6.40469 16.4176 5.78969 16.4176Z" />
</svg>
