<svg width="25" height="23" viewBox="0 0 25 23" xmlns="http://www.w3.org/2000/svg">
  <path fill-rule="evenodd" clip-rule="evenodd" d="M5.06292 0.338067C6.01692 0.0362851 7.02304 -0.064869 8.018 0.041192C9.01312 0.147346 9.97613 0.457964 10.8451 0.954278C11.3636 1.25044 11.8414 1.6102 12.27 2.02166C12.6984 1.61481 13.1759 1.25933 13.6928 0.966973C14.5611 0.476021 15.5219 0.169428 16.5141 0.0665826C17.5064 -0.036209 18.5097 0.0667453 19.4604 0.369317C20.411 0.671933 21.2892 1.16789 22.0395 1.82537C22.7896 2.48277 23.396 3.28814 23.8207 4.19061C24.2454 5.09319 24.4798 6.07436 24.5082 7.07147C24.5365 8.06868 24.3586 9.06212 23.9858 9.98748C23.6129 10.9127 23.0529 11.7514 22.3412 12.4504C22.3159 12.4753 22.2894 12.499 22.2621 12.5207L12.9692 21.7248C12.5795 22.1105 11.9516 22.1106 11.5619 21.7248L2.1928 12.4455C1.47584 11.7477 0.910664 10.9084 0.533625 9.98162C0.156714 9.05491 -0.0238509 8.05983 0.00237518 7.05975C0.0287267 6.05935 0.261631 5.074 0.686945 4.16815C1.11231 3.26242 1.72121 2.45426 2.47405 1.7951C3.22701 1.13596 4.10884 0.639949 5.06292 0.338067ZM7.80609 2.02947C7.08552 1.95266 6.35636 2.02574 5.66546 2.24432C4.97469 2.46293 4.3366 2.82274 3.79144 3.29998C3.24624 3.77734 2.80551 4.3628 2.49749 5.01873C2.1896 5.67454 2.02054 6.38727 2.0014 7.1115C1.98237 7.83589 2.11311 8.55746 2.38616 9.22869C2.62515 9.81603 2.96886 10.3545 3.39886 10.8185L3.58831 11.0129L3.59417 11.0187L12.2651 19.6066L20.9369 11.0187C20.9559 11 20.9756 10.9819 20.9955 10.965C21.4838 10.4705 21.8714 9.8845 22.1313 9.23943C22.401 8.56963 22.5296 7.85088 22.5092 7.12908C22.4887 6.40696 22.3187 5.69583 22.0112 5.04217C21.7036 4.38866 21.2643 3.80532 20.7211 3.32928C20.1777 2.85315 19.5414 2.49468 18.853 2.27557C18.1646 2.05654 17.4386 1.98142 16.7201 2.05584C16.0016 2.13032 15.306 2.35265 14.6772 2.70818C14.0484 3.06382 13.499 3.54583 13.0649 4.12322C12.8754 4.37485 12.5781 4.52247 12.2631 4.52166C11.9479 4.52074 11.6514 4.37124 11.4633 4.11834C11.031 3.53666 10.4823 3.05105 9.85296 2.69158C9.22367 2.33218 8.5267 2.10634 7.80609 2.02947Z" />
</svg>
