<svg width="18" height="21" viewBox="0 0 18 21" xmlns="http://www.w3.org/2000/svg">
  <path fill-rule="evenodd" clip-rule="evenodd" d="M9.00017 5.00031C10.0609 5.00032 11.0782 5.42129 11.8283 6.1712C12.5784 6.92135 13.0002 7.93946 13.0002 9.00031C13.0001 10.061 12.5784 11.0784 11.8283 11.8284C11.0782 12.5785 10.0609 13.0003 9.00017 13.0003C7.93939 13.0003 6.92218 12.5785 6.17205 11.8284C5.42197 11.0784 5.00025 10.0611 5.00017 9.00031C5.00017 7.93944 5.4219 6.92135 6.17205 6.1712C6.92216 5.42129 7.93949 5.00031 9.00017 5.00031ZM9.00017 7.00031C8.46976 7.00031 7.96118 7.21119 7.58611 7.58624C7.21113 7.9613 7.00017 8.46994 7.00017 9.00031C7.00025 9.53063 7.21111 10.0394 7.58611 10.4144C7.96117 10.7893 8.46983 11.0003 9.00017 11.0003C9.53051 11.0003 10.0392 10.7893 10.4142 10.4144C10.7892 10.0394 11.0001 9.53062 11.0002 9.00031C11.0002 8.46996 10.7892 7.9613 10.4142 7.58624C10.0392 7.21119 9.53058 7.00032 9.00017 7.00031Z" />
  <path fill-rule="evenodd" clip-rule="evenodd" d="M9.00017 0.000305176C10.7801 0.000318936 12.5202 0.528061 14.0002 1.51691C15.4801 2.50577 16.6334 3.91157 17.3146 5.55597C17.9958 7.20047 18.1745 9.01036 17.8273 10.7562C17.4801 12.5019 16.623 14.1059 15.3644 15.3646L11.1213 19.6068C10.5589 20.1686 9.79608 20.4845 9.00115 20.4847C8.20604 20.4847 7.44258 20.1697 6.88006 19.6077L2.63592 15.3646C1.37734 14.1059 0.520283 12.5019 0.173027 10.7562C-0.174203 9.01035 0.00451952 7.20048 0.685722 5.55597C1.36694 3.91156 2.52021 2.50577 4.00017 1.51691C5.48017 0.528067 7.22023 0.00030593 9.00017 0.000305176ZM9.00017 2.00031C7.61582 2.00031 6.26259 2.41094 5.1115 3.17999C3.96037 3.94914 3.0632 5.04254 2.53338 6.32159C2.00359 7.60059 1.86493 9.00775 2.13494 10.3655C2.40498 11.7232 3.07125 12.9706 4.04998 13.9495L8.29412 18.1927L8.36736 18.2591C8.54522 18.4046 8.76933 18.4847 9.00115 18.4847C9.26591 18.4845 9.51984 18.3798 9.70721 18.1927L13.9504 13.9495C14.9291 12.9706 15.5954 11.7232 15.8654 10.3655C16.1354 9.00776 15.9968 7.60058 15.467 6.32159C14.9372 5.04255 14.04 3.94914 12.8888 3.17999C11.7378 2.41094 10.3845 2.00032 9.00017 2.00031Z" />
</svg>
