<svg width="19" height="19" viewBox="0 0 19 19" xmlns="http://www.w3.org/2000/svg">
  <path fill-rule="evenodd" clip-rule="evenodd" d="M7.54883 0C8.54116 0 9.52401 0.196902 10.4404 0.579102C11.3568 0.96127 12.189 1.52112 12.8896 2.22656C13.5903 2.93206 14.1456 3.76955 14.5244 4.69043C14.9032 5.61115 15.0986 6.59758 15.0986 7.59375C15.0986 8.59009 14.9032 9.57718 14.5244 10.498C14.2725 11.1105 13.941 11.6847 13.542 12.209L18.5508 17.252C18.9397 17.6438 18.9375 18.2769 18.5459 18.666C18.1541 19.0551 17.521 19.0528 17.1318 18.6611L12.1309 13.627C11.6127 14.0252 11.0456 14.357 10.4404 14.6094C9.52401 14.9916 8.54116 15.1885 7.54883 15.1885C6.55668 15.1884 5.57446 14.9915 4.6582 14.6094C3.7419 14.2272 2.90963 13.6673 2.20898 12.9619C1.50832 12.2564 0.953057 11.4189 0.574219 10.498C0.195385 9.57718 -1.47454e-08 8.59009 0 7.59375C5.90527e-05 6.59756 0.195442 5.61115 0.574219 4.69043C0.953058 3.76956 1.50831 2.93205 2.20898 2.22656C2.90964 1.52115 3.74189 0.961257 4.6582 0.579102C5.57446 0.196985 6.55667 5.47139e-05 7.54883 0ZM7.54883 2C6.82118 2.00005 6.10037 2.14428 5.42773 2.4248C4.75511 2.70534 4.14346 3.11674 3.62793 3.63574C3.11231 4.1549 2.70227 4.77196 2.42285 5.45117C2.14353 6.13021 2.00006 6.85838 2 7.59375C2 8.3293 2.14346 9.05811 2.42285 9.7373C2.70227 10.4165 3.11231 11.0336 3.62793 11.5527C4.14346 12.0717 4.75511 12.4831 5.42773 12.7637C6.10037 13.0442 6.82118 13.1884 7.54883 13.1885C8.27661 13.1885 8.99814 13.0443 9.6709 12.7637C10.3435 12.4831 10.9552 12.0717 11.4707 11.5527C11.9863 11.0336 12.3954 10.4164 12.6748 9.7373C12.9542 9.05808 13.0986 8.32934 13.0986 7.59375C13.0986 6.85832 12.9542 6.13026 12.6748 5.45117C12.3954 4.772 11.9863 4.15488 11.4707 3.63574C10.9552 3.11674 10.3435 2.70535 9.6709 2.4248C8.99814 2.14423 8.27661 2 7.54883 2Z" />
</svg>
